<svg width="157" height="43" viewBox="0 0 157 43" fill="none" xmlns="http://www.w3.org/2000/svg">
<g clip-path="url(#clip0_6531_22898)">
<path d="M58.4312 23.1239L51.4525 11.5339H49.2479V29.9917H51.178V14.7398L57.5932 25.3367H59.2254L65.588 14.7454V29.9917H67.4947V11.5339H65.3631L58.4312 23.1239Z" fill="white"/>
<path d="M72.3331 12.9159C71.6673 12.9159 71.1446 13.4055 71.1446 14.0321C71.1446 14.6587 71.6673 15.1707 72.3331 15.1707C72.9988 15.1707 73.5215 14.6699 73.5215 14.0321C73.5215 13.3943 72.9988 12.9159 72.3331 12.9159Z" fill="white"/>
<path d="M73.2733 17.2352H71.3928V29.9889H73.2733V17.2352Z" fill="white"/>
<path d="M82.6843 17.2352H82.1091C79.2621 17.2352 76.9495 19.4536 76.9495 22.1784V29.9889H78.83V22.3099C78.83 20.4244 80.4301 18.8913 82.3981 18.8913C84.3662 18.8913 85.9663 20.4244 85.9663 22.3099V29.9889H87.8468V22.1784C87.8468 19.4508 85.5313 17.2352 82.6872 17.2352H82.6843Z" fill="white"/>
<path d="M102.555 18.9472C102.555 19.0452 102.555 19.1375 102.555 19.227C101.506 17.7723 99.5704 16.8519 97.3892 16.8519C93.3801 16.8519 90.4718 19.6886 90.4718 23.5995C90.4718 27.5103 93.3801 30.3693 97.3892 30.3693C99.6405 30.3693 101.573 29.3986 102.628 27.818C102.628 27.8824 102.628 27.9467 102.628 28.0139V29.9889H104.432V11.5339H102.552V18.95L102.555 18.9472ZM102.604 23.6022C102.604 26.5368 100.464 28.6685 97.5147 28.6685C94.5656 28.6685 92.4019 26.4892 92.4019 23.6022C92.4019 20.7153 94.6006 18.536 97.5147 18.536C100.429 18.536 102.604 20.6677 102.604 23.6022Z" fill="white"/>
<path d="M115.201 16.8547C112.929 16.8547 110.961 17.8059 109.887 19.3501C109.887 19.2746 109.887 19.1962 109.887 19.1151V17.2352H108.082V35.4803H109.962V28.2069C109.962 28.137 109.962 28.0698 109.962 28.0027C110.979 29.4714 112.88 30.3721 115.128 30.3721C119.137 30.3721 122.045 27.5243 122.045 23.6022C122.045 19.6802 119.102 16.8547 115.201 16.8547ZM120.141 23.6022C120.141 26.4892 117.943 28.6685 115.029 28.6685C112.114 28.6685 109.916 26.5368 109.916 23.6022C109.916 20.6677 112.068 18.536 115.029 18.536C117.989 18.536 120.141 20.7153 120.141 23.6022Z" fill="white"/>
<path d="M126.551 11.5339H124.673V29.9917H130.685V28.3104H126.551V11.5339Z" fill="white"/>
<path d="M137.842 16.8547C133.871 16.8547 130.875 19.7557 130.875 23.6022C130.875 27.4488 133.871 30.3721 137.842 30.3721C140.085 30.3721 142.035 29.4518 143.332 27.7761L143.481 27.5858L142.304 26.4221L142.097 26.6739C141.034 27.9775 139.571 28.6657 137.868 28.6657C135.252 28.6657 133.226 26.9592 132.843 24.475H144.389V24.1953C144.389 24.1282 144.395 24.0191 144.4 23.9128C144.406 23.7953 144.412 23.675 144.412 23.5994C144.412 19.6886 141.65 16.8519 137.842 16.8519V16.8547ZM132.837 22.7966C133.199 20.2732 135.205 18.536 137.816 18.536C140.426 18.536 142.266 20.2732 142.511 22.7966H132.837Z" fill="white"/>
<path d="M152.057 23.5072L156.959 17.2352H154.708L150.845 22.2875L146.958 17.2352H144.654L149.61 23.51L144.64 29.9917H146.885L150.795 24.7325L154.731 29.9917H157L152.057 23.5072Z" fill="white"/>
<g clip-path="url(#clip1_6531_22898)">
<path d="M31.3232 38.994C32.5665 38.994 33.5745 37.2956 33.5745 35.2006C33.5745 33.1056 32.5665 31.4072 31.3232 31.4072C30.0798 31.4072 29.0719 33.1056 29.0719 35.2006C29.0719 37.2956 30.0798 38.994 31.3232 38.994Z" fill="url(#paint0_linear_6531_22898)"/>
<path d="M21.4245 11.4109C22.6679 11.4109 23.6758 9.7125 23.6758 7.61747C23.6758 5.52245 22.6679 3.8241 21.4245 3.8241C20.1812 3.8241 19.1732 5.52245 19.1732 7.61747C19.1732 9.7125 20.1812 11.4109 21.4245 11.4109Z" fill="url(#paint1_linear_6531_22898)"/>
<path d="M21.6931 29.8463C22.8704 29.8463 23.8247 28.2368 23.8247 26.2515C23.8247 24.2662 22.8704 22.6567 21.6931 22.6567C20.5159 22.6567 19.5616 24.2662 19.5616 26.2515C19.5616 28.2368 20.5159 29.8463 21.6931 29.8463Z" fill="url(#paint2_linear_6531_22898)"/>
<path d="M31.3524 21.1405C32.5747 21.1405 33.5657 19.4697 33.5657 17.4087C33.5657 15.3477 32.5747 13.6769 31.3524 13.6769C30.13 13.6769 29.139 15.3477 29.139 17.4087C29.139 19.4697 30.13 21.1405 31.3524 21.1405Z" fill="url(#paint3_linear_6531_22898)"/>
<path d="M30.6457 0H23.4101C16.2037 0 10.3579 5.36556 10.0396 12.2445H9.70968C5.56042 12.2445 2.18204 15.4784 2.18204 19.4564C2.18204 23.4345 5.56042 26.6683 9.70968 26.6683H12.5829C13.3976 27.4069 17.1526 30.5652 21.8392 30.5652C26.5257 30.5652 30.0676 27.5691 30.9757 26.7746C31.8721 27.4348 33.7934 28.9958 37.312 32.4479C35.7527 31.6199 33.6591 30.831 31.3494 30.831C26.8878 30.831 23.2349 33.7264 22.2217 34.6132C22.1662 34.6635 22.1195 34.7055 22.0815 34.7363L21.553 35.2062L21.2143 35.5279L21.1501 35.5951L21.1822 35.679C22.8319 40.0571 27.209 42.9972 32.0707 42.9972C35.1629 42.9972 38.0683 41.8446 40.2553 39.7493C42.4278 37.668 43.6337 34.8985 43.6454 31.9528L43.6571 12.4656C43.66 5.59215 37.823 0 30.6457 0ZM31.3232 38.5408C30.3771 38.5408 29.5449 36.9798 29.5449 35.2006C29.5449 33.4214 30.3742 31.8604 31.3232 31.8604C32.2722 31.8604 33.1014 33.4214 33.1014 35.2006C33.1014 36.9798 32.2722 38.5408 31.3232 38.5408ZM29.5858 31.9052C28.9638 32.6969 28.6018 33.8942 28.6018 35.2034C28.6018 36.5126 28.9376 37.6065 29.5099 38.3981C26.4206 37.8051 23.8977 35.8972 23.0159 35.1587C23.9065 34.4145 26.4614 32.4843 29.5858 31.9052ZM33.1306 38.4065C33.7088 37.6149 34.0475 36.4483 34.0475 35.2006C34.0475 33.8858 33.6825 32.6829 33.0547 31.8912C36.2112 32.4535 38.7924 34.4034 39.6918 35.1559C38.8012 35.9 36.2521 37.8247 33.1335 38.4065H33.1306ZM31.3524 39.4808C35.8871 39.4808 39.5779 36.4959 40.5152 35.6678L41.2072 35.0496L41.1079 34.9461C35.8257 29.4574 32.8445 27.0404 31.6882 26.1788C36.1674 22.6959 40.267 18.3542 40.7283 17.8619L41.0583 17.5486L40.7225 17.2269C40.5502 17.0646 36.4798 13.2209 31.3494 13.2209C27.0104 13.2209 23.4422 15.954 22.3093 16.9275C19.6258 14.6895 17.0358 11.9984 15.1466 9.90586C16.8606 10.9325 19.2141 11.9396 21.8479 11.9396C26.9754 11.9396 31.0487 8.09869 31.221 7.93364L31.5568 7.61193L31.221 7.29022C31.0516 7.12797 26.9754 3.28424 21.8479 3.28424C19.2784 3.28424 16.9774 4.24377 15.2868 5.23408C17.6315 2.93175 20.8318 1.62813 24.2218 1.62813H30.6428C36.8769 1.62813 41.9489 6.48735 41.9489 12.46L41.943 31.9024C41.943 37.1197 37.5135 41.3635 32.0678 41.3635C28.5521 41.3635 25.3635 39.6151 23.5853 36.756C25.2497 37.9198 28.0849 39.4724 31.3436 39.4724L31.3524 39.4808ZM23.5327 4.35007C26.695 4.90677 29.285 6.86221 30.1902 7.61753C29.288 8.37284 26.698 10.3283 23.5327 10.885C24.1401 10.0933 24.4963 8.90436 24.4963 7.61753C24.4963 6.33069 24.143 5.14176 23.5327 4.35007ZM19.9938 7.61753C19.9938 5.83833 20.823 4.27734 21.772 4.27734C22.721 4.27734 23.5503 5.83833 23.5503 7.61753C23.5503 9.39672 22.721 10.9577 21.772 10.9577C20.823 10.9577 19.9938 9.39672 19.9938 7.61753ZM19.0477 7.61753C19.0477 8.88478 19.3922 10.0597 19.985 10.8514C16.9044 10.2527 14.3904 8.35046 13.5115 7.61753C14.3904 6.88179 16.9044 4.9823 19.985 4.38364C19.3922 5.17533 19.0477 6.35307 19.0477 7.61753ZM34.0329 17.4059C34.0329 16.1946 33.7234 15.0896 33.1744 14.3091C36.2754 14.8994 38.8041 16.8128 39.6888 17.5514C38.7661 18.3207 36.1207 20.3153 32.9029 20.8412C33.6095 20.0775 34.0329 18.8074 34.0329 17.4059ZM28.6689 17.4059C28.6689 18.8074 29.0923 20.0719 29.796 20.8384C27.8251 20.5139 26.0906 19.6411 24.9548 18.9417C24.3474 18.5305 23.705 18.0549 23.0393 17.5262C23.9269 16.7904 26.4498 14.891 29.5274 14.3063C28.9784 15.0868 28.6689 16.1918 28.6689 17.4059ZM31.1976 14.1328H31.4838C32.3744 14.2699 33.0985 15.7386 33.0985 17.4059C33.0985 19.1543 32.2809 20.6901 31.3524 20.6901C30.4238 20.6901 29.6062 19.1543 29.6062 17.4059C29.6062 15.6575 30.3304 14.2699 31.2005 14.1328H31.1976ZM20.3295 29.5385C17.0913 29.0238 14.4283 27.0152 13.4998 26.2403C14.4283 25.4626 17.103 23.4512 20.35 22.9393C19.6696 23.6778 19.2608 24.8975 19.2608 26.2487C19.2608 27.5999 19.6609 28.7944 20.3295 29.5357V29.5385ZM23.5269 26.2515C23.5269 27.9328 22.7443 29.4099 21.8508 29.4099C20.9573 29.4099 20.1748 27.9356 20.1748 26.2515C20.1748 24.5674 20.9573 23.0932 21.8508 23.0932C22.7443 23.0932 23.5269 24.5674 23.5269 26.2515ZM24.4379 26.2515C24.4379 24.9031 24.0291 23.6834 23.3546 22.9449C26.5899 23.4596 29.2529 25.4682 30.1785 26.2403C29.2558 27.0124 26.6016 29.0126 23.3751 29.5329C24.0408 28.7916 24.4408 27.5803 24.4408 26.2487L24.4379 26.2515ZM21.8392 21.9154C19.4068 21.9154 16.3759 23.3785 14.7846 24.2513C14.1392 24.6038 13.5377 25.0094 12.9888 25.4626L12.7435 25.1157C12.0836 24.145 11.7332 23.0204 11.7332 21.8651V13.6013C11.7332 11.8865 12.104 10.2332 12.834 8.68336C14.3728 10.4793 18.0345 14.5944 21.8479 17.7444L21.9764 17.8675C22.1458 18.0297 26.2191 21.8735 31.3494 21.8735C33.0839 21.8735 34.8651 21.4426 36.6579 20.5866C35.1016 22.0525 33.0109 23.9296 30.8472 25.5969C29.7435 24.6542 26.1607 21.9154 21.8362 21.9154H21.8392ZM10.7375 25.0066H9.7126C6.51817 25.0066 3.91941 22.5169 3.91941 19.4536C3.91941 16.3904 6.51817 13.9035 9.7126 13.9035H10.028V21.8651C10.028 22.9421 10.2732 24.0247 10.7375 25.0066Z" fill="url(#paint4_linear_6531_22898)"/>
</g>
</g>
<defs>
<linearGradient id="paint0_linear_6531_22898" x1="31.3232" y1="5.40749" x2="31.3232" y2="37.7351" gradientUnits="userSpaceOnUse">
<stop stop-color="#E02DA7"/>
<stop offset="0.04" stop-color="#DA2EA8"/>
<stop offset="0.09" stop-color="#CB32AC"/>
<stop offset="0.14" stop-color="#B139B3"/>
<stop offset="0.2" stop-color="#8E43BC"/>
<stop offset="0.26" stop-color="#604FC8"/>
<stop offset="0.33" stop-color="#295FD6"/>
<stop offset="0.36" stop-color="#0569E0"/>
<stop offset="0.56" stop-color="#0A76BA"/>
<stop offset="1" stop-color="#17995E"/>
</linearGradient>
<linearGradient id="paint1_linear_6531_22898" x1="21.4245" y1="-3.4913" x2="21.4245" y2="28.8363" gradientUnits="userSpaceOnUse">
<stop stop-color="#E02DA7"/>
<stop offset="0.09" stop-color="#DC2EA7"/>
<stop offset="0.18" stop-color="#D031AA"/>
<stop offset="0.27" stop-color="#BD36AF"/>
<stop offset="0.35" stop-color="#A33DB6"/>
<stop offset="0.43" stop-color="#8047BF"/>
<stop offset="0.52" stop-color="#5652CA"/>
<stop offset="0.6" stop-color="#2560D7"/>
<stop offset="0.64" stop-color="#0569E0"/>
<stop offset="0.7" stop-color="#066DD2"/>
<stop offset="0.8" stop-color="#0B7AB0"/>
<stop offset="0.94" stop-color="#138E79"/>
<stop offset="1" stop-color="#17995E"/>
</linearGradient>
<linearGradient id="paint2_linear_6531_22898" x1="21.6932" y1="10.5968" x2="21.6932" y2="42.9244" gradientUnits="userSpaceOnUse">
<stop stop-color="#E02DA7"/>
<stop offset="0.28" stop-color="#5D50C8"/>
<stop offset="0.48" stop-color="#0569E0"/>
<stop offset="0.56" stop-color="#066DD2"/>
<stop offset="0.71" stop-color="#0B7AB0"/>
<stop offset="0.91" stop-color="#138E79"/>
<stop offset="1" stop-color="#17995E"/>
</linearGradient>
<linearGradient id="paint3_linear_6531_22898" x1="31.3524" y1="11.5844" x2="31.3524" y2="43.912" gradientUnits="userSpaceOnUse">
<stop stop-color="#E02DA7"/>
<stop offset="0.07" stop-color="#DA2EA8"/>
<stop offset="0.16" stop-color="#CB32AC"/>
<stop offset="0.25" stop-color="#B139B3"/>
<stop offset="0.36" stop-color="#8E43BC"/>
<stop offset="0.47" stop-color="#604FC8"/>
<stop offset="0.58" stop-color="#295FD6"/>
<stop offset="0.64" stop-color="#0569E0"/>
<stop offset="0.7" stop-color="#066DD2"/>
<stop offset="0.8" stop-color="#0B7AB0"/>
<stop offset="0.94" stop-color="#138E79"/>
<stop offset="1" stop-color="#17995E"/>
</linearGradient>
<linearGradient id="paint4_linear_6531_22898" x1="2.18204" y1="21.5014" x2="43.66" y2="21.5014" gradientUnits="userSpaceOnUse">
<stop stop-color="#E02DA7"/>
<stop offset="0.07" stop-color="#DA2EA8"/>
<stop offset="0.16" stop-color="#CB32AC"/>
<stop offset="0.25" stop-color="#B139B3"/>
<stop offset="0.36" stop-color="#8E43BC"/>
<stop offset="0.47" stop-color="#604FC8"/>
<stop offset="0.58" stop-color="#295FD6"/>
<stop offset="0.64" stop-color="#0569E0"/>
<stop offset="0.7" stop-color="#066DD2"/>
<stop offset="0.8" stop-color="#0B7AB0"/>
<stop offset="0.94" stop-color="#138E79"/>
<stop offset="1" stop-color="#17995E"/>
</linearGradient>
<clipPath id="clip0_6531_22898">
<rect width="157" height="43" fill="white"/>
</clipPath>
<clipPath id="clip1_6531_22898">
<rect width="44.7318" height="43" fill="white" transform="translate(2.18204)"/>
</clipPath>
</defs>
</svg>
